<svg viewBox="0 0 64 64" fill="none" xmlns="http://www.w3.org/2000/svg" class="w-8 h-8 relative z-10"><defs><linearGradient id="mb-grad" x1="0%" y1="0%" x2="100%" y2="100%"><stop offset="0%" stop-color="#7dd3fc"></stop><stop offset="40%" stop-color="#38bdf8"></stop><stop offset="100%" stop-color="#0284c7"></stop></linearGradient><filter id="mb-outer-glow"><feGaussianBlur in="SourceGraphic" stdDeviation="2.5"></feGaussianBlur></filter><filter id="mb-soft-glow"><feGaussianBlur in="SourceGraphic" stdDeviation="1.2"></feGaussianBlur></filter></defs><g filter="url(#mb-outer-glow)" opacity="0.35"><path d="M10 50V14L22 36L34 14V50" stroke="#38bdf8" stroke-width="3" stroke-linecap="round" stroke-linejoin="round"></path><path d="M28 50V14H40C45 14 48 18 48 22C48 25.5 46 27.5 43 28.5C46.5 29.5 50 32 50 37C50 42 46 46 41 46H28" stroke="#38bdf8" stroke-width="3" stroke-linecap="round" stroke-linejoin="round"></path></g><g filter="url(#mb-soft-glow)" opacity="0.5"><path d="M10 50V14L22 36L34 14V50" stroke="url(#mb-grad)" stroke-width="2.5" stroke-linecap="round" stroke-linejoin="round"></path><path d="M28 50V14H40C45 14 48 18 48 22C48 25.5 46 27.5 43 28.5C46.5 29.5 50 32 50 37C50 42 46 46 41 46H28" stroke="url(#mb-grad)" stroke-width="2.5" stroke-linecap="round" stroke-linejoin="round"></path></g><path d="M10 50V14L22 36L34 14V50" stroke="url(#mb-grad)" stroke-width="2" stroke-linecap="round" stroke-linejoin="round"></path><path d="M28 50V14H40C45 14 48 18 48 22C48 25.5 46 27.5 43 28.5C46.5 29.5 50 32 50 37C50 42 46 46 41 46H28" stroke="url(#mb-grad)" stroke-width="2" stroke-linecap="round" stroke-linejoin="round"></path><line x1="10" y1="20" x2="34" y2="32" stroke="#38bdf8" stroke-width="0.6" opacity="0.25"></line><line x1="34" y1="20" x2="10" y2="32" stroke="#38bdf8" stroke-width="0.6" opacity="0.25"></line><line x1="16" y1="14" x2="16" y2="50" stroke="#38bdf8" stroke-width="0.4" opacity="0.15"></line><line x1="28" y1="28" x2="46" y2="28" stroke="#38bdf8" stroke-width="0.6" opacity="0.2"></line><line x1="28" y1="22" x2="44" y2="38" stroke="#38bdf8" stroke-width="0.4" opacity="0.12"></line><line x1="28" y1="38" x2="44" y2="22" stroke="#38bdf8" stroke-width="0.4" opacity="0.12"></line></svg>